<svg version="1.1" id="Layer_1" xmlns="http://www.w3.org/2000/svg" xmlns:xlink="http://www.w3.org/1999/xlink" x="0px" y="0px"
	 width="100%" viewBox="0 0 720 400" enable-background="new 0 0 720 400" xml:space="preserve">
<path fill="#000000" opacity="1.000000" stroke="none" 
	d="
M318.906250,364.308350 
	C272.440765,353.588287 231.422363,332.565125 194.125885,303.878967 
	C165.018753,281.491547 139.737427,255.377014 117.867638,225.897385 
	C115.659012,222.920273 115.828629,220.872787 117.951149,218.003937 
	C140.791183,187.132797 167.413742,160.071823 198.213333,137.072052 
	C220.740479,120.249771 244.735641,106.023666 270.674377,95.204758 
	C288.496765,87.771149 306.901154,82.307076 325.895233,78.394325 
	C346.803680,74.087227 367.826019,73.262688 388.956482,73.804420 
	C422.587402,74.666618 454.736572,82.514107 485.684113,95.565140 
	C530.528870,114.476830 569.223328,142.263901 603.102295,176.956314 
	C615.677002,189.832932 627.433838,203.431686 638.045715,218.008011 
	C640.135620,220.878662 640.390015,222.909454 638.158813,225.907074 
	C612.494324,260.387268 582.436523,290.324188 547.013977,314.787781 
	C523.194397,331.238098 497.824127,344.779358 470.590149,354.571381 
	C457.317688,359.343536 443.666321,362.872925 429.748627,365.694733 
	C412.999268,369.090668 396.157593,370.612549 379.233063,370.721191 
	C359.093475,370.850494 339.023895,369.041382 318.906250,364.308350 
M418.095428,307.605713 
	C463.467194,285.840546 485.447235,231.755188 464.620209,183.963333 
	C448.499115,146.970184 407.068329,122.988983 367.132660,128.043335 
	C328.079224,132.986008 295.155945,161.968323 286.298065,199.517776 
	C279.592712,227.942398 284.994873,253.617859 301.460846,277.147583 
	C315.976318,297.890015 336.387726,310.395538 360.898712,315.270599 
	C380.253296,319.120087 399.311768,316.107086 418.095428,307.605713 
M170.585983,236.948288 
	C200.119965,270.559998 275.929535,320.442169 294.619202,317.899902 
	C266.381836,292.017609 251.364624,260.206146 251.203674,222.384201 
	C251.042282,184.456253 266.136749,152.536224 293.564636,126.163277 
	C289.258087,126.181183 285.899994,127.537651 282.529083,128.879410 
	C260.120697,137.798874 239.360626,149.708038 219.734695,163.637207 
	C197.612244,179.338242 178.035202,197.817429 160.322601,218.328568 
	C158.210953,220.773865 157.821609,222.742554 160.143250,225.229553 
	C163.549927,228.878860 166.767502,232.704697 170.585983,236.948288 
M595.923279,225.360092 
	C598.757141,222.727234 597.517944,220.612503 595.392822,218.146484 
	C563.835449,181.526169 526.653381,152.347046 482.319305,132.670395 
	C475.880768,129.812805 469.540833,126.449081 461.874695,125.822098 
	C489.884247,152.519852 505.269684,184.878922 504.838654,223.518585 
	C504.406342,262.273224 488.302338,294.300842 458.026276,320.702179 
	C493.938354,308.579224 524.622009,290.545227 552.637146,267.762085 
	C568.188965,255.114700 582.264282,240.962982 595.923279,225.360092 
z"/>
<path fill="#000000" opacity="1.000000" stroke="none" 
	d="
M426.842712,243.654083 
	C416.374390,264.783295 399.662811,275.661011 376.420074,275.190674 
	C355.005798,274.757355 339.393982,264.071259 329.952087,245.150879 
	C323.009460,231.238770 322.393799,216.727448 329.132446,201.499878 
	C335.608368,206.571915 341.528015,210.068314 349.272369,209.852142 
	C366.831451,209.362061 378.768433,191.205597 371.749054,175.128448 
	C369.190491,169.268311 369.521118,168.775299 376.050873,168.713989 
	C401.466003,168.475342 421.904236,182.866028 429.374268,207.230927 
	C433.073608,219.297104 432.207642,231.569412 426.842712,243.654083 
z"/>
</svg>